<?xml version="1.0" encoding="UTF-8"?>
<svg version="1.1" xmlns="http://www.w3.org/2000/svg" width="276" height="126">
<path d="M0 0 C4.62 0 9.24 0 14 0 C14.30744141 3.33931641 14.30744141 3.33931641 14.62109375 6.74609375 C14.82192452 8.89406431 15.02428986 11.0418851 15.22680664 13.18969727 C15.36708701 14.68629216 15.50576322 16.1830383 15.64282227 17.67993164 C15.83972692 19.82740078 16.04233189 21.97426581 16.24609375 24.12109375 C16.36654053 25.4145874 16.4869873 26.70808105 16.61108398 28.04077148 C16.67896561 30.88194527 16.67896561 30.88194527 18 32 C18.99 21.44 19.98 10.88 21 0 C25.62 0 30.24 0 35 0 C35.99 11.22 36.98 22.44 38 34 C38.28875 31.36 38.5775 28.72 38.875 26 C39.83196374 17.32171511 40.89769152 8.66099521 42 0 C46.62 0 51.24 0 56 0 C55.38563218 9.14705295 54.61856026 18.25020623 53.625 27.36328125 C53.49561035 28.56188278 53.3662207 29.76048431 53.23291016 30.9954071 C52.96194303 33.49700122 52.68963391 35.99845033 52.41601562 38.49975586 C51.99616937 42.34760737 51.58386091 46.19622175 51.171875 50.04492188 C50.90670451 52.48442445 50.64109585 54.92387944 50.375 57.36328125 C50.25205566 58.51725906 50.12911133 59.67123688 50.00244141 60.86018372 C49.88562012 61.91606186 49.76879883 62.97194 49.6484375 64.05981445 C49.54708496 64.99243607 49.44573242 65.92505768 49.34130859 66.88594055 C49 69 49 69 48 70 C45.13732433 70.07325168 42.299281 70.09238205 39.4375 70.0625 C38.63119141 70.05798828 37.82488281 70.05347656 36.99414062 70.04882812 C34.99606244 70.03700518 32.99802217 70.01906914 31 70 C28.70387244 51.17995444 28.70387244 51.17995444 29 42 C28.34 42 27.68 42 27 42 C27.04125 43.27875 27.0825 44.5575 27.125 45.875 C27.14839739 53.97049768 25.95823743 61.97476149 25 70 C19.06 70 13.12 70 7 70 C6.08447132 61.61171193 5.17121656 53.22318579 4.26194 44.83421803 C3.83961728 40.93872063 3.41630683 37.0433359 2.99072266 33.14819336 C2.57989673 29.38778616 2.17168687 25.62710328 1.76527405 21.86621666 C1.6099167 20.43283695 1.4536238 18.99955832 1.29637146 17.56638527 C1.07594902 15.55600305 0.85918831 13.54522038 0.64257812 11.53442383 C0.51822388 10.39080887 0.39386963 9.24719391 0.26574707 8.06892395 C0 5 0 5 0 0 Z " fill="#060606" transform="translate(28,26)"/>
<path d="M0 0 C26 0 26 0 30 2 C33.82162615 7.37858495 34.17196006 11.85866536 34.25 18.375 C34.27578125 19.66148438 34.3015625 20.94796875 34.328125 22.2734375 C33.97847919 26.24441489 33.09471439 28.63422105 31 32 C30.01 32.495 30.01 32.495 29 33 C29.474375 33.433125 29.94875 33.86625 30.4375 34.3125 C33.64554832 37.77719219 33.11593594 41.59569393 33.09765625 46.07421875 C33.0962413 46.7580513 33.09482635 47.44188385 33.09336853 48.1464386 C33.08777876 50.32683722 33.07522822 52.50713251 33.0625 54.6875 C33.05748367 56.16731622 33.052921 57.64713406 33.04882812 59.12695312 C33.0386643 62.75137376 33.0190871 66.37557144 33 70 C28.38 70 23.76 70 19 70 C18.67 60.1 18.34 50.2 18 40 C16.68 39.34 15.36 38.68 14 38 C14 48.56 14 59.12 14 70 C9.38 70 4.76 70 0 70 C0 46.9 0 23.8 0 0 Z M14 13 C14 17.29 14 21.58 14 26 C18.63019987 25.5547002 18.63019987 25.5547002 20 24 C20.07205511 22.31391034 20.08386068 20.62499341 20.0625 18.9375 C20.04896484 17.55884766 20.04896484 17.55884766 20.03515625 16.15234375 C20.02355469 15.44207031 20.01195312 14.73179688 20 14 C17.03 13.505 17.03 13.505 14 13 Z " fill="#020202" transform="translate(210,26)"/>
<path d="M0 0 C26 0 26 0 30 2 C33.82162615 7.37858495 34.17196006 11.85866536 34.25 18.375 C34.27578125 19.66148438 34.3015625 20.94796875 34.328125 22.2734375 C33.97847919 26.24441489 33.09471439 28.63422105 31 32 C30.01 32.495 30.01 32.495 29 33 C29.474375 33.433125 29.94875 33.86625 30.4375 34.3125 C33.64554832 37.77719219 33.11593594 41.59569393 33.09765625 46.07421875 C33.0962413 46.7580513 33.09482635 47.44188385 33.09336853 48.1464386 C33.08777876 50.32683722 33.07522822 52.50713251 33.0625 54.6875 C33.05748367 56.16731622 33.052921 57.64713406 33.04882812 59.12695312 C33.0386643 62.75137376 33.0190871 66.37557144 33 70 C28.38 70 23.76 70 19 70 C19 59.77 19 49.54 19 39 C17.35 38.67 15.7 38.34 14 38 C14 48.56 14 59.12 14 70 C9.38 70 4.76 70 0 70 C0 46.9 0 23.8 0 0 Z M14 13 C14 17.29 14 21.58 14 26 C18.63019987 25.5547002 18.63019987 25.5547002 20 24 C20.07205511 22.31391034 20.08386068 20.62499341 20.0625 18.9375 C20.04896484 17.55884766 20.04896484 17.55884766 20.03515625 16.15234375 C20.02355469 15.44207031 20.01195312 14.73179688 20 14 C17.03 13.505 17.03 13.505 14 13 Z " fill="#020202" transform="translate(88,26)"/>
<path d="M0 0 C9.57 0 19.14 0 29 0 C29 4.29 29 8.58 29 13 C28 14 28 14 25.05859375 14.09765625 C21.70572917 14.06510417 18.35286458 14.03255208 15 14 C15 18.29 15 22.58 15 27 C19.29 27 23.58 27 28 27 C28 31.29 28 35.58 28 40 C23.71 40 19.42 40 15 40 C15 45.28 15 50.56 15 56 C18.4340625 55.9690625 18.4340625 55.9690625 21.9375 55.9375 C24.29166332 55.91629132 26.64686445 55.92728259 29 56 C32.30823887 59.30823887 30 65.32144372 30 70 C20.1 70 10.2 70 0 70 C0 46.9 0 23.8 0 0 Z " fill="#0A0A0A" transform="translate(177,26)"/>
<path d="M0 0 C10.23 0 20.46 0 31 0 C31 4.29 31 8.58 31 13 C30.67 13.33 30.34 13.66 30 14 C27.36 14 24.72 14 22 14 C22 32.48 22 50.96 22 70 C17.38 70 12.76 70 8 70 C8 51.52 8 33.04 8 14 C5.36 14 2.72 14 0 14 C0 9.38 0 4.76 0 0 Z " fill="#050605" transform="translate(143,26)"/>
<path d="M0 0 C4.62 0 9.24 0 14 0 C14 23.1 14 46.2 14 70 C9.38 70 4.76 70 0 70 C0 46.9 0 23.8 0 0 Z " fill="#080808" transform="translate(126,26)"/>
</svg>
